<svg xmlns="http://www.w3.org/2000/svg" xmlns:xlink="http://www.w3.org/1999/xlink" fill="#000000" version="1.1" id="Capa_1" xml:space="preserve" viewBox="0 69.09 136.85 147.81">
<g>
	<path d="M129.352,102.748H81.408l-0.002-26.155c0-3.033-1.827-5.768-4.63-6.929c-2.804-1.161-6.027-0.519-8.174,1.626   L2.196,137.696C0.79,139.102,0,141.01,0,142.999s0.79,3.897,2.197,5.303l66.408,66.406c1.435,1.435,3.353,2.197,5.305,2.197   c0.966,0,1.94-0.187,2.868-0.571c2.803-1.161,4.63-3.896,4.63-6.929v-26.155h47.943c4.143,0,7.5-3.358,7.5-7.5v-65.503   C136.852,106.106,133.494,102.748,129.352,102.748z M121.852,168.251H73.908c-4.143,0-7.5,3.358-7.5,7.5v15.548l-48.302-48.3   l48.301-48.301l0.001,15.55c0,4.142,3.358,7.5,7.5,7.5h47.943V168.251z"/>
</g>
</svg>